<?xml version="1.0" encoding="UTF-8" standalone="no"?>
<svg xmlns="http://www.w3.org/2000/svg" width="45" height="45">
  <path
    d="M 22.5,9 C 19.5,9 17,11.5 17,14.5 C 17,16 17.5,17.5 18.5,18.5 C 16,20 13.5,22.5 13.5,26.5 C 13.5,31 16.5,33 16.5,33 C 14.5,34 14,37 11,38.5 C 15,39.5 19,40 22.5,40 C 26,40 30,39.5 34,38.5 C 31,37 30.5,34 28.5,33 C 28.5,33 31.5,31 31.5,26.5 C 31.5,22.5 29,20 26.5,18.5 C 27.5,17.5 28,16 28,14.5 C 28,11.5 25.5,9 22.5,9 z"
    style="fill:#000000; stroke:#000000; stroke-width:1.5; stroke-linecap:round;"/>
</svg>